 0 
SECTION
 2 
HEADER
 9 
$ACADVER
 1 
AC1004
 9 
$EXTMIN
 10 
0.0
 20 
0.0
 9 
$EXTMAX
 10 
95.25
 20 
20.32
 9 
$LIMMIN
 10 
0.0
 20 
0.0
 9 
$LIMMAX
 10 
95.25
 20 
20.32
 9 
$INSBASE
 10 
0.0
 20 
0.0
 9 
$VIEWCTR
 10 
47.625
 20 
10.16
 9 
$VIEWSIZE
 40 
20.32
 9 
$ORTHOMODE
 70 
 0 
 9 
$REGENMODE
 70 
 1 
 9 
$FILLMODE
 70 
 1 
 9 
$QTEXTMODE
 70 
 0 
 9 
$DRAGMODE
 70 
 2 
 9 
$LTSCALE
 40 
1.0
 9 
$OSMODE
 70 
 0 
 9 
$ATTMODE
 70 
 1 
 9 
$TEXTSIZE
 40 
0.2
 9 
$TRACEWID
 40 
0.05
 9 
$TEXTSTYLE
 7 
STANDARD
 9 
$CLAYER
 8 
0
 9 
$CELTYPE
 6 
BYLAYER
 9 
$CECOLOR
 62 
 256 
 9 
$DIMSCALE
 40 
1.0
 9 
$DIMLFAC
 40 
1.0
 9 
$LUNITS
 70 
 2 
 9 
$LUPREC
 70 
 4 
 9 
$AXISMODE
 70 
 0 
 9 
$AXISUNIT
 10 
0.0
 20 
0.0
 9 
$SKETCHINC
 40 
0.1
 9 
$MENU
 1 
acad
 9 
$ELEVATION
 40 
0.0
 9 
$THICKNESS
 40 
0.0
 9 
$VIEWDIR
 10 
0.0
 20 
0.0
 30 
1.0
 9 
$LIMCHECK
 70 
 0 
 9 
$BLIPMODE
 70 
 1 
 9 
$FASTZOOM
 70 
 1 
 9 
$SKPOLY
 70 
 0 
 9 
$ANGBASE
 50 
0.0
 9 
$ANGDIR
 70 
 0 
 9 
$PDMODE
 70 
 0 
 9 
$PDSIZE
 40 
0.0
 9 
$PLINEWID
 40 
0.0
 9 
$COORDS
 70 
 0 
 9 
$ATTDIA
 70 
 0 
 9 
$ATTREQ
 70 
 1 
 0 
ENDSEC
 0 
SECTION
 2 
TABLES
 0 
TABLE
 2 
LTYPE
 70 
 10 
 0 
LTYPE
 2 
CONTINUOUS
 70 
 64 
 3 
Solid line
 72 
 65 
 73 
 0 
 40 
0.0
 0 
ENDTAB
 0 
TABLE
 2 
LAYER
 70 
 153 
 0 
LAYER
 2 
0
 70 
 64 
 62 
 7 
 6 
CONTINUOUS
 0 
ENDTAB
 0 
ENDSEC
 0 
SECTION
 2 
BLOCKS
 0 
ENDSEC
 0 
SECTION
 2 
ENTITIES
 0 
LINE
 8 
0
 62 
 7 
 10 
0.0
 20 
20.32
 11 
95.25
 21 
20.32
 0 
LINE
 8 
0
 62 
 7 
 10 
95.25
 20 
20.32
 11 
95.25
 21 
0.0
 0 
LINE
 8 
0
 62 
 7 
 10 
95.25
 20 
0.0
 11 
0.0
 21 
0.0
 0 
LINE
 8 
0
 62 
 7 
 10 
0.0
 20 
0.0
 11 
0.0
 21 
20.32
 0 
CIRCLE
 8 
0
 62 
 7 
 10 
40.64
 20 
10.16
 40 
2.032
 0 
CIRCLE
 8 
0
 62 
 7 
 10 
40.64
 20 
10.16
 40 
1.575
 0 
CIRCLE
 8 
0
 62 
 7 
 10 
36.83
 20 
12.7
 40 
1.651
 0 
CIRCLE
 8 
0
 62 
 7 
 10 
36.83
 20 
12.7
 40 
0.762
 0 
CIRCLE
 8 
0
 62 
 7 
 10 
43.18
 20 
15.24
 40 
1.651
 0 
CIRCLE
 8 
0
 62 
 7 
 10 
43.18
 20 
15.24
 40 
0.762
 0 
LINE
 8 
0
 62 
 7 
 10 
31.598
 20 
19.202
 11 
31.598
 21 
1.118
 0 
LINE
 8 
0
 62 
 7 
 10 
31.598
 20 
1.118
 11 
49.682
 21 
1.118
 0 
LINE
 8 
0
 62 
 7 
 10 
49.682
 20 
1.118
 11 
49.682
 21 
19.202
 0 
LINE
 8 
0
 62 
 7 
 10 
49.682
 20 
19.202
 11 
31.598
 21 
19.202
 0 
LINE
 8 
0
 62 
 7 
 10 
39.37
 20 
6.35
 11 
39.37
 21 
5.08
 0 
LINE
 8 
0
 62 
 7 
 10 
40.208
 20 
6.35
 11 
39.573
 21 
5.715
 0 
LINE
 8 
0
 62 
 7 
 10 
39.37
 20 
5.715
 11 
39.573
 21 
5.715
 0 
LINE
 8 
0
 62 
 7 
 10 
39.573
 20 
5.715
 11 
40.208
 21 
5.08
 0 
LINE
 8 
0
 62 
 7 
 10 
40.64
 20 
6.147
 11 
40.843
 21 
6.35
 0 
LINE
 8 
0
 62 
 7 
 10 
40.843
 20 
6.35
 11 
41.275
 21 
6.35
 0 
LINE
 8 
0
 62 
 7 
 10 
41.275
 20 
6.35
 11 
41.478
 21 
6.147
 0 
LINE
 8 
0
 62 
 7 
 10 
41.478
 20 
6.147
 11 
41.478
 21 
5.918
 0 
LINE
 8 
0
 62 
 7 
 10 
41.478
 20 
5.918
 11 
41.275
 21 
5.715
 0 
LINE
 8 
0
 62 
 7 
 10 
41.275
 20 
5.715
 11 
40.843
 21 
5.715
 0 
LINE
 8 
0
 62 
 7 
 10 
40.843
 20 
5.715
 11 
40.64
 21 
5.512
 0 
LINE
 8 
0
 62 
 7 
 10 
40.64
 20 
5.512
 11 
40.64
 21 
5.08
 0 
LINE
 8 
0
 62 
 7 
 10 
40.64
 20 
5.08
 11 
41.478
 21 
5.08
 0 
CIRCLE
 8 
0
 62 
 7 
 10 
15.24
 20 
10.16
 40 
2.032
 0 
CIRCLE
 8 
0
 62 
 7 
 10 
15.24
 20 
10.16
 40 
1.575
 0 
CIRCLE
 8 
0
 62 
 7 
 10 
17.78
 20 
15.24
 40 
1.651
 0 
CIRCLE
 8 
0
 62 
 7 
 10 
17.78
 20 
15.24
 40 
0.762
 0 
CIRCLE
 8 
0
 62 
 7 
 10 
11.43
 20 
12.7
 40 
1.651
 0 
CIRCLE
 8 
0
 62 
 7 
 10 
11.43
 20 
12.7
 40 
0.762
 0 
LINE
 8 
0
 62 
 7 
 10 
1.422
 20 
19.202
 11 
1.422
 21 
1.118
 0 
LINE
 8 
0
 62 
 7 
 10 
1.422
 20 
1.118
 11 
29.058
 21 
1.118
 0 
LINE
 8 
0
 62 
 7 
 10 
29.058
 20 
1.118
 11 
29.058
 21 
19.202
 0 
LINE
 8 
0
 62 
 7 
 10 
29.058
 20 
19.202
 11 
1.422
 21 
19.202
 0 
LINE
 8 
0
 62 
 7 
 10 
13.97
 20 
6.35
 11 
13.97
 21 
5.08
 0 
LINE
 8 
0
 62 
 7 
 10 
14.808
 20 
6.35
 11 
14.173
 21 
5.715
 0 
LINE
 8 
0
 62 
 7 
 10 
13.97
 20 
5.715
 11 
14.173
 21 
5.715
 0 
LINE
 8 
0
 62 
 7 
 10 
14.173
 20 
5.715
 11 
14.808
 21 
5.08
 0 
LINE
 8 
0
 62 
 7 
 10 
15.443
 20 
6.147
 11 
15.672
 21 
6.35
 0 
LINE
 8 
0
 62 
 7 
 10 
15.672
 20 
6.35
 11 
15.672
 21 
5.08
 0 
LINE
 8 
0
 62 
 7 
 10 
15.443
 20 
5.08
 11 
15.875
 21 
5.08
 0 
CIRCLE
 8 
0
 62 
 7 
 10 
60.96
 20 
10.16
 40 
2.032
 0 
CIRCLE
 8 
0
 62 
 7 
 10 
60.96
 20 
10.16
 40 
1.575
 0 
CIRCLE
 8 
0
 62 
 7 
 10 
57.15
 20 
12.7
 40 
1.651
 0 
CIRCLE
 8 
0
 62 
 7 
 10 
57.15
 20 
12.7
 40 
0.762
 0 
CIRCLE
 8 
0
 62 
 7 
 10 
63.5
 20 
15.24
 40 
1.651
 0 
CIRCLE
 8 
0
 62 
 7 
 10 
63.5
 20 
15.24
 40 
0.762
 0 
LINE
 8 
0
 62 
 7 
 10 
51.918
 20 
19.202
 11 
51.918
 21 
1.118
 0 
LINE
 8 
0
 62 
 7 
 10 
51.918
 20 
1.118
 11 
70.002
 21 
1.118
 0 
LINE
 8 
0
 62 
 7 
 10 
70.002
 20 
1.118
 11 
70.002
 21 
19.202
 0 
LINE
 8 
0
 62 
 7 
 10 
70.002
 20 
19.202
 11 
51.918
 21 
19.202
 0 
LINE
 8 
0
 62 
 7 
 10 
59.69
 20 
6.35
 11 
59.69
 21 
5.08
 0 
LINE
 8 
0
 62 
 7 
 10 
60.528
 20 
6.35
 11 
59.893
 21 
5.715
 0 
LINE
 8 
0
 62 
 7 
 10 
59.69
 20 
5.715
 11 
59.893
 21 
5.715
 0 
LINE
 8 
0
 62 
 7 
 10 
59.893
 20 
5.715
 11 
60.528
 21 
5.08
 0 
LINE
 8 
0
 62 
 7 
 10 
60.96
 20 
6.147
 11 
61.163
 21 
6.35
 0 
LINE
 8 
0
 62 
 7 
 10 
61.163
 20 
6.35
 11 
61.595
 21 
6.35
 0 
LINE
 8 
0
 62 
 7 
 10 
61.595
 20 
6.35
 11 
61.798
 21 
6.147
 0 
LINE
 8 
0
 62 
 7 
 10 
61.798
 20 
6.147
 11 
61.798
 21 
5.918
 0 
LINE
 8 
0
 62 
 7 
 10 
61.798
 20 
5.918
 11 
61.595
 21 
5.715
 0 
LINE
 8 
0
 62 
 7 
 10 
61.595
 20 
5.715
 11 
61.392
 21 
5.715
 0 
LINE
 8 
0
 62 
 7 
 10 
61.595
 20 
5.715
 11 
61.798
 21 
5.512
 0 
LINE
 8 
0
 62 
 7 
 10 
61.798
 20 
5.512
 11 
61.798
 21 
5.283
 0 
LINE
 8 
0
 62 
 7 
 10 
61.798
 20 
5.283
 11 
61.595
 21 
5.08
 0 
LINE
 8 
0
 62 
 7 
 10 
61.595
 20 
5.08
 11 
61.163
 21 
5.08
 0 
LINE
 8 
0
 62 
 7 
 10 
61.163
 20 
5.08
 11 
60.96
 21 
5.283
 0 
CIRCLE
 8 
0
 62 
 7 
 10 
81.28
 20 
10.16
 40 
2.032
 0 
CIRCLE
 8 
0
 62 
 7 
 10 
81.28
 20 
10.16
 40 
1.575
 0 
CIRCLE
 8 
0
 62 
 7 
 10 
77.47
 20 
12.7
 40 
1.651
 0 
CIRCLE
 8 
0
 62 
 7 
 10 
77.47
 20 
12.7
 40 
0.762
 0 
CIRCLE
 8 
0
 62 
 7 
 10 
83.82
 20 
15.24
 40 
1.651
 0 
CIRCLE
 8 
0
 62 
 7 
 10 
83.82
 20 
15.24
 40 
0.762
 0 
LINE
 8 
0
 62 
 7 
 10 
72.238
 20 
19.202
 11 
72.238
 21 
1.118
 0 
LINE
 8 
0
 62 
 7 
 10 
72.238
 20 
1.118
 11 
90.322
 21 
1.118
 0 
LINE
 8 
0
 62 
 7 
 10 
90.322
 20 
1.118
 11 
90.322
 21 
19.202
 0 
LINE
 8 
0
 62 
 7 
 10 
90.322
 20 
19.202
 11 
72.238
 21 
19.202
 0 
LINE
 8 
0
 62 
 7 
 10 
80.01
 20 
6.35
 11 
80.01
 21 
5.08
 0 
LINE
 8 
0
 62 
 7 
 10 
80.848
 20 
6.35
 11 
80.213
 21 
5.715
 0 
LINE
 8 
0
 62 
 7 
 10 
80.01
 20 
5.715
 11 
80.213
 21 
5.715
 0 
LINE
 8 
0
 62 
 7 
 10 
80.213
 20 
5.715
 11 
80.848
 21 
5.08
 0 
LINE
 8 
0
 62 
 7 
 10 
82.118
 20 
5.512
 11 
81.28
 21 
5.512
 0 
LINE
 8 
0
 62 
 7 
 10 
81.28
 20 
5.512
 11 
81.28
 21 
5.715
 0 
LINE
 8 
0
 62 
 7 
 10 
81.28
 20 
5.715
 11 
81.915
 21 
6.35
 0 
LINE
 8 
0
 62 
 7 
 10 
81.915
 20 
6.35
 11 
81.915
 21 
5.08
 0 
CIRCLE
 8 
0
 62 
 7 
 10 
92.71
 20 
13.97
 40 
0.965
 0 
CIRCLE
 8 
0
 62 
 7 
 10 
92.71
 20 
13.97
 40 
0.508
 0 
CIRCLE
 8 
0
 62 
 7 
 10 
92.71
 20 
11.43
 40 
0.965
 0 
CIRCLE
 8 
0
 62 
 7 
 10 
92.71
 20 
11.43
 40 
0.508
 0 
CIRCLE
 8 
0
 62 
 7 
 10 
92.71
 20 
8.89
 40 
0.965
 0 
CIRCLE
 8 
0
 62 
 7 
 10 
92.71
 20 
8.89
 40 
0.508
 0 
CIRCLE
 8 
0
 62 
 7 
 10 
92.71
 20 
6.35
 40 
0.965
 0 
CIRCLE
 8 
0
 62 
 7 
 10 
92.71
 20 
6.35
 40 
0.508
 0 
CIRCLE
 8 
0
 62 
 7 
 10 
92.71
 20 
3.81
 40 
0.965
 0 
CIRCLE
 8 
0
 62 
 7 
 10 
92.71
 20 
3.81
 40 
0.508
 0 
ENDSEC
 0 
EOF
